<svg xmlns="http://www.w3.org/2000/svg" width="20" height="20" viewBox="0 0 20 20">
    <path fill="#48ADE7" fill-rule="evenodd" d="M18.68 2.851c.285.3.246.897.13 1.346l-.377.852-3.549-1.301s.35-.959.443-1.002c.05-.137.415-.683.92-.766.369-.09 1.132.09 1.45.22.402.162.697.351.982.651zm-7.418 11.202c0-.433 3.168-8.842 3.168-8.842l3.548 1.302s-3.089 8.663-3.275 8.75c-.05.137-2.228 2.119-2.321 2.162-.187.087-.373.174-.51.124-.136-.05-.223-.237-.31-.424-.042-.094-.3-2.78-.3-3.072zm-8.345-9.22A.904.904 0 0 1 2 3.917C2 3.41 2.39 3 2.917 3h9.166c.528 0 .917.41.917.917 0 .506-.39.916-.917.916H2.917zM8 15c.572 0 1 .448 1 1s-.428 1-1 1H3c-.572 0-1-.448-1-1s.428-1 1-1h5zm1-4c.592 0 1 .448 1 1s-.408 1-1 1H3c-.592 0-1-.447-1-1 0-.552.408-1 1-1h6zm3-3c0 .552-.422 1-1 1H3c-.578 0-1-.448-1-1 0-.553.422-1 1-1h8c.578 0 1 .447 1 1z"/>
</svg>
