<svg xmlns="http://www.w3.org/2000/svg" width="20" height="20" viewBox="0 0 20 20">
    <path fill="#32B5C5" fill-rule="nonzero" d="M7.972 11.038c0 1.121.557 2.026 1.678 2.026 1.12 0 1.829-.905 1.829-2.026V5.553l.164-.165h1.298l.165.165v5.485c0 1.909-1.547 3.62-3.456 3.62s-3.456-1.711-3.456-3.62V5.553c0-2.515 2.244-4.486 5.053-4.486 2.81 0 5.053 1.971 5.053 4.486v7.68c0 3.12-2.678 5.65-6.65 5.65-3.972 0-6.65-2.53-6.65-5.65V4.456l.165-.165h1.282l.164.165v8.777c0 2.332 2.421 4.025 5.039 4.025s4.979-1.536 4.979-3.869V5.71c0-1.726-1.416-2.952-3.382-2.952-1.966 0-3.275 1.336-3.275 2.796v5.485z"/>
</svg>
