<?xml version="1.0" encoding="UTF-8" standalone="no"?>
<svg width="48px" height="48px" viewBox="0 0 48 48" version="1.1" xmlns="http://www.w3.org/2000/svg" xmlns:xlink="http://www.w3.org/1999/xlink">
    <!-- Generator: Sketch 39.1 (31720) - http://www.bohemiancoding.com/sketch -->
    <title>头像</title>
    <desc>Created with Sketch.</desc>
    <defs>
        <circle id="path-1" cx="24" cy="24" r="24"></circle>
        <mask id="mask-2" maskContentUnits="userSpaceOnUse" maskUnits="objectBoundingBox" x="0" y="0" width="48" height="48" fill="white">
            <use xlink:href="#path-1"></use>
        </mask>
        <mask id="mask-4" maskContentUnits="userSpaceOnUse" maskUnits="objectBoundingBox" x="0" y="0" width="48" height="48" fill="white">
            <use xlink:href="#path-1"></use>
        </mask>
        <path d="M40,39.0584489 L40,39.0649781 C40,40.1326704 39.1602398,40.9984492 38.1249969,40.9984492 L1.87500307,40.9984492 C0.839907511,40.9984492 0,40.1326704 0,39.0649781 L0,39.0584489 C0,39.0584489 0,32.0060044 4.99025533,29.4409213 C8.15101546,27.8197707 6.93359385,29.1381736 10.8137908,27.4747061 C14.6907477,25.8178168 15.6087599,25.2384382 15.6087599,25.2384382 L15.6445476,21.4167093 C15.6445476,21.4167093 14.1927138,20.2709614 13.7435261,16.6739245 C12.8320921,16.9473645 12.5325845,15.5736354 12.4804984,14.6979892 C12.4316523,13.8548908 11.9531568,11.218183 13.0632152,11.4558353 C12.8353813,9.69639375 12.6725446,8.10783994 12.7539384,7.2663615 C13.0306184,4.31394595 15.7845077,1.22957228 20.0294058,1.00335837 C25.0196121,1.22795226 26.9987874,4.31232592 27.2754184,7.26479057 C27.3568122,8.10621992 27.1777262,9.69477373 26.9498922,11.4525952 C28.0599015,11.2166121 27.5781169,13.8484107 27.5260308,14.6947983 C27.4739937,15.5672044 27.168006,16.9376935 26.2631013,16.6642044 C25.8072862,20.2611922 24.3555014,21.4005582 24.3555014,21.4005582 L24.3912892,25.2026014 C24.3912892,25.2026014 25.3092523,25.7430013 29.1863074,27.3999396 C33.0665043,29.0600689 31.8489845,27.8197707 35.0098429,29.4409213 C40,32.0059553 40,39.0584489 40,39.0584489" id="path-5"></path>
    </defs>
    <g id="Page-1" stroke="none" stroke-width="1" fill="none" fill-rule="evenodd">
        <g id="审批流程" transform="translate(-857.000000, -223.000000)">
            <g id="报销单详情" transform="translate(570.000000, 75.000000)">
                <g id="Group-9">
                    <g id="Group-15" transform="translate(50.000000, 147.000000)">
                        <g id="Group-11-Copy-2" transform="translate(231.000000, 1.000000)">
                            <g id="Group-5" transform="translate(6.000000, 0.000000)">
                                <mask id="mask-3" fill="white">
                                    <use xlink:href="#path-1"></use>
                                </mask>
                                <g id="Mask" stroke="#E7E7E7" mask="url(#mask-2)" stroke-width="2" fill="#F3F3F3">
                                    <use mask="url(#mask-4)" xlink:href="#path-1"></use>
                                </g>
                                <g id="Page-1" mask="url(#mask-3)">
                                    <g transform="translate(4.000000, 8.000000)">
                                        <mask id="mask-6" fill="white">
                                            <use xlink:href="#path-5"></use>
                                        </mask>
                                        <use id="Mask" stroke="none" fill="#E2E2E2" fill-rule="evenodd" xlink:href="#path-5"></use>
                                    </g>
                                </g>
                            </g>
                        </g>
                    </g>
                </g>
            </g>
        </g>
    </g>
</svg>