<?xml version="1.0" standalone="no"?><!DOCTYPE svg PUBLIC "-//W3C//DTD SVG 1.1//EN" "http://www.w3.org/Graphics/SVG/1.1/DTD/svg11.dtd"><svg t="1539935312794" class="icon" style="" viewBox="0 0 1024 1024" version="1.1" xmlns="http://www.w3.org/2000/svg" p-id="4903" xmlns:xlink="http://www.w3.org/1999/xlink" width="200" height="200"><defs><style type="text/css"></style></defs><path d="M573.325 163.644l383.147 622.621c20.84 33.866 10.28 78.214-23.585 99.055A72 72 0 0 1 895.152 896H128.85c-39.764 0-72-32.235-72-72a72 72 0 0 1 10.681-37.735l383.156-622.621c20.84-33.866 65.19-44.425 99.055-23.584a72 72 0 0 1 23.584 23.584zM464 320v256h96V320h-96z m0 352v96h96v-96h-96z" p-id="4904" fill="#fa8c16"></path></svg>