<svg xmlns="http://www.w3.org/2000/svg" width="14" height="15" viewBox="0 0 14 15">
    <g fill="none" fill-rule="evenodd">
        <path fill="#A1DC63" d="M12.088 9.786c-.982 2.112-3.2 3.707-5.27 4.75-2.07-1.008-4.18-2.506-5.29-4.53C.445 8.027.113 5.467 0 3.207c1.175-.31 2.35-.64 3.463-1.126 1.15-.5 2.21-1.295 3.214-2.06C8.775 1.518 10.933 2.734 13.5 3.29c-.12 2.194-.49 4.51-1.413 6.497"/>
        <path fill="#FFF" d="M10.27 4.48L6.007 8.72 3.75 6.473c-.496-.494-1.264.27-.768.764l2.6 2.587a.634.634 0 0 0 .038.036c.192.195.511.267.762.018l4.655-4.633c.496-.494-.272-1.258-.768-.765"/>
    </g>
</svg>
